Coordinates
version=1
nRows=6
nColumns=40
inDegrees=yes

Units are S.I. units (second, meters, Newtons, ...)
If the header above contains a line with 'inDegrees', this indicates whether rotational values are in degrees (yes) or radians (no).

endheader
time	pelvis_tilt	pelvis_list	pelvis_rotation	pelvis_tx	pelvis_ty	pelvis_tz	hip_flexion_r	hip_adduction_r	hip_rotation_r	knee_angle_r	knee_angle_r_beta	ankle_angle_r	subtalar_angle_r	mtp_angle_r	hip_flexion_l	hip_adduction_l	hip_rotation_l	knee_angle_l	knee_angle_l_beta	ankle_angle_l	subtalar_angle_l	mtp_angle_l	lumbar_extension	lumbar_bending	lumbar_rotation	arm_flex_r	arm_add_r	arm_rot_r	elbow_flex_r	pro_sup_r	wrist_flex_r	wrist_dev_r	arm_flex_l	arm_add_l	arm_rot_l	elbow_flex_l	pro_sup_l	wrist_flex_l	wrist_dev_l
      5.34999999999999964473	     53.87168168689316871678	     -0.34055455387810995571	   -177.67413025197905085406	      0.41743752762219415997	      0.70270786660302064774	     -0.61593458939700762578	    102.60167759652307495344	    -10.12576742796637141453	     -1.09666106126650908514	     52.31475668988778693347	      0.91306475161827205245	      6.30889121407963937571	      0.00000000000000000000	      0.00000000000000000000	    101.29627224460632817227	     -5.28794247322728772076	     -1.53855663768392814106	     50.64024535018916139961	      0.88383901537854980823	      4.08387104883253559962	      0.00000000000000000000	      0.00000000000000000000	    -20.68603829124583981525	      2.09893648781963282346	      1.46077155531324076598	     65.95998541760690159208	     -8.49878561117852093787	     36.66141871122992057508	      1.04882348919875667548	     86.50016840484845204173	      0.00000000000000000000	      0.00000000000000000000	     56.09023293778107444041	     -0.73940104059423372718	     39.41731627371165558316	      0.58553286471024368343	      2.50038239090329383885	      0.00000000000000000000	      0.00000000000000000000
      5.35500000000000042633	     53.96132589345406671555	     -0.31449732261169560665	   -177.73247253081066787672	      0.41717190595790165641	      0.70454067135963316382	     -0.61590246037499507548	    102.32787931518284096910	    -10.07600873639578509255	     -1.23806037720705020000	     51.76349047944940906518	      0.90344334119113034465	      6.02815812776153325814	      0.00000000000000000000	      0.00000000000000000000	    101.02531171424841716089	     -5.32011944210359999374	     -1.56894904323929140766	     50.08156008055433972004	      0.87408811794102980741	      3.86788963826606657648	      0.00000000000000000000	      0.00000000000000000000	    -20.70399409367701082374	      2.11750145427758207362	      1.48162796372462279848	     65.97190464642912388626	     -8.49792732746102608132	     36.53436392340663729783	      1.04875487197203165479	     86.56451966863716052103	      0.00000000000000000000	      0.00000000000000000000	     56.20462139124008871249	     -0.75279301563896183769	     38.55549886927705927064	      0.58561711618334477691	      2.55650308242616919330	      0.00000000000000000000	      0.00000000000000000000
      5.36000000000000031974	     53.76292687603940834151	      0.35146298440054413170	   -177.58490403392721646014	      0.41643802609493552058	      0.70660603554973588913	     -0.61567227555621106827	    101.62401370510947629100	    -10.37509322782256226958	     -2.17999740746257897328	     51.35151869796193579987	      0.89625307717886737446	      5.95884770150814713219	      0.00000000000000000000	      0.00000000000000000000	    100.63581615270653912830	     -5.11444217281769120120	     -1.04650262487383161059	     49.61270712538762950317	      0.86590509016566541423	      3.75398287088698223712	      0.00000000000000000000	      0.00000000000000000000	    -21.01427269330319091978	      2.90214669472476671785	      1.46149770707928583491	     66.00453770616014992356	     -8.45993219910961435914	     38.29675355637032652112	      1.02722968153443994233	     86.63829821767373573493	      0.00000000000000000000	      0.00000000000000000000	     56.68974619058078445732	     -0.70619041701144280587	     35.10470078417598926990	      0.59398961687463647241	      2.54360969440253192886	      0.00000000000000000000	      0.00000000000000000000
      5.36500000000000021316	     54.15807617181471300682	     -0.36853742428485064542	   -177.79315100231798396635	      0.41673095899611095616	      0.70807966901228669432	     -0.61570180174588817756	    101.84429358588924685591	    -10.05652252262574997133	     -1.48690867845003116265	     50.67491593536237104445	      0.88444413124341536570	      5.47306664868884151787	      0.00000000000000000000	      0.00000000000000000000	    100.46618363804115858784	     -5.30601530445804048242	     -1.74714031866903618528	     48.92305892531010158564	      0.85386845839385983048	      3.54725228270967818389	      0.00000000000000000000	      0.00000000000000000000	    -20.68550377704069376250	      2.04837625988240157326	      1.42127515397642212314	     65.91494754578232573294	     -8.40130468635721427972	     36.70854848495694966459	      1.05265573472292062185	     86.57726125680672168983	      0.00000000000000000000	      0.00000000000000000000	     56.15933383099198294985	     -0.82528652187094131421	     38.47189192109251365537	      0.58348914397138973431	      2.52823052572586259856	      0.00000000000000000000	      0.00000000000000000000
      5.37000000000000010658	     54.17657421638119785712	     -0.23744729755780988323	   -177.88934649547894650823	      0.41641660590360890515	      0.70986232908254076612	     -0.61591193969095381355	    101.49289236540069225612	     -9.93538009164369029236	     -1.68049123692882673708	     50.15263709783410206455	      0.87532864591505854523	      5.24128566585496358243	      0.00000000000000000000	      0.00000000000000000000	    100.17647402255997235443	     -5.40247503513502547179	     -1.67337951770939841190	     48.41799137129863339624	      0.84505336663136543240	      3.32412620093233668328	      0.00000000000000000000	      0.00000000000000000000	    -20.75380761398101014947	      2.14422106004852031091	      1.54559620070677006254	     65.89116057160559591921	     -8.39114576132566725164	     36.74271988352683848689	      1.04468258585631090796	     86.58180023540973024865	      0.00000000000000000000	      0.00000000000000000000	     55.92473867478310722845	     -0.88934696458670536856	     39.97762651087145968631	      0.57857415082879481982	      2.54405659838836983866	      0.00000000000000000000	      0.00000000000000000000
      5.37500000000000000000	     54.25464192333491553200	     -0.28552957652769733743	   -177.87027657163616822800	      0.41614872302610300681	      0.71170527851638309969	     -0.61559409434412615258	    101.21413371778545808866	     -9.99073530148936939099	     -1.78604120398316590368	     49.58615992060333610425	      0.86544175403497825005	      4.97954222893904940861	      0.00000000000000000000	      0.00000000000000000000	     99.87198435275419683421	     -5.37122010050730303021	     -1.88189558237347842606	     47.83833739943606389033	      0.83493649630010102758	      3.10115130282002615658	      0.00000000000000000000	      0.00000000000000000000	    -20.75876559468128235153	      2.11594301994698641423	      1.46014870427994103430	     65.85671015390384752664	     -8.35709934404779808403	     36.88126074355980676955	      1.04436435159441520781	     86.58760139542826550496	      0.00000000000000000000	      0.00000000000000000000	     55.88084600960243619738	     -0.91294030941646964195	     39.96771444021204899855	      0.57663002909574412325	      2.54115990491680054930	      0.00000000000000000000	      0.00000000000000000000
